<?xml version="1.0" encoding="UTF-8" standalone="no"?>
<!-- Created with Inkscape (http://www.inkscape.org/) -->

<svg
   width="297mm"
   height="420mm"
   viewBox="0 0 297 420"
   version="1.1"
   id="svg5"
   sodipodi:docname="logo.svg"
   inkscape:version="1.1.2 (0a00cf5339, 2022-02-04)"
   xmlns:inkscape="http://www.inkscape.org/namespaces/inkscape"
   xmlns:sodipodi="http://sodipodi.sourceforge.net/DTD/sodipodi-0.dtd"
   xmlns="http://www.w3.org/2000/svg"
   xmlns:svg="http://www.w3.org/2000/svg">
  <sodipodi:namedview
     id="namedview6"
     pagecolor="#ffffff"
     bordercolor="#666666"
     borderopacity="1.0"
     inkscape:pageshadow="2"
     inkscape:pageopacity="0.0"
     inkscape:pagecheckerboard="0"
     inkscape:document-units="mm"
     showgrid="false"
     inkscape:zoom="0.45291836"
     inkscape:cx="204.23107"
     inkscape:cy="816.92427"
     inkscape:window-width="1920"
     inkscape:window-height="1043"
     inkscape:window-x="0"
     inkscape:window-y="0"
     inkscape:window-maximized="1"
     inkscape:current-layer="svg5"
     inkscape:showpageshadow="0"
     inkscape:deskcolor="#d1d1d1"
     showguides="false">
    <sodipodi:guide
       position="232.70416,29.373787"
       orientation="9.627515,0"
       id="guide262"
       inkscape:locked="false" />
    <sodipodi:guide
       position="232.70416,26.826507"
       orientation="0,9.2578772"
       id="guide264"
       inkscape:locked="false" />
    <sodipodi:guide
       position="235.15364,26.826507"
       orientation="0,9.2579906"
       id="guide266"
       inkscape:locked="false" />
    <sodipodi:guide
       position="237.60315,26.826507"
       orientation="-9.627515,0"
       id="guide268"
       inkscape:locked="false" />
    <sodipodi:guide
       position="237.60315,29.373787"
       orientation="-9.627515,0"
       id="guide270"
       inkscape:locked="false" />
    <sodipodi:guide
       position="237.60315,31.921067"
       orientation="0,-9.2579906"
       id="guide272"
       inkscape:locked="false" />
    <sodipodi:guide
       position="235.15364,31.921067"
       orientation="0,-9.2578772"
       id="guide274"
       inkscape:locked="false" />
    <sodipodi:guide
       position="232.70416,31.921067"
       orientation="9.627515,0"
       id="guide276"
       inkscape:locked="false" />
    <sodipodi:guide
       position="34.677595,183.26045"
       orientation="1.7837102,-4.917823"
       id="guide278"
       inkscape:locked="false" />
    <sodipodi:guide
       position="33.376421,182.78851"
       orientation="106.53169,0"
       id="guide280"
       inkscape:locked="false" />
    <sodipodi:guide
       position="55.024469,142.03915"
       orientation="-11.235855,6.3546444"
       id="guide282"
       inkscape:locked="false" />
    <sodipodi:guide
       position="56.705802,145.01197"
       orientation="-18.85149,0.4591748"
       id="guide284"
       inkscape:locked="false" />
    <sodipodi:guide
       position="161.78013,195.20298"
       orientation="-8.4014362,7.945474"
       id="guide286"
       inkscape:locked="false" />
    <sodipodi:guide
       position="163.88237,197.42586"
       orientation="-3.009978,-5.051074"
       id="guide288"
       inkscape:locked="false" />
    <sodipodi:guide
       position="146.27433,247.95112"
       orientation="2.2951937,-10.060724"
       id="guide290"
       inkscape:locked="false" />
    <sodipodi:guide
       position="143.61243,247.34385"
       orientation="4.2453921,3.8423811"
       id="guide292"
       inkscape:locked="false" />
    <sodipodi:guide
       position="66.650488,278.97998"
       orientation="4.9200605,-4.8289323"
       id="guide294"
       inkscape:locked="false" />
    <sodipodi:guide
       position="65.372833,277.67821"
       orientation="127.57061,-0.30788031"
       id="guide296"
       inkscape:locked="false" />
    <sodipodi:guide
       position="65.291373,243.92516"
       orientation="127.56759,-0.31131969"
       id="guide298"
       inkscape:locked="false" />
    <sodipodi:guide
       position="65.209003,210.1729"
       orientation="3.8016756,2.9950904"
       id="guide300"
       inkscape:locked="false" />
    <sodipodi:guide
       position="85.824718,214.21108"
       orientation="-4.4364094,13.547705"
       id="guide302"
       inkscape:locked="false" />
    <sodipodi:guide
       position="89.409215,215.38488"
       orientation="-64.139599,0"
       id="guide304"
       inkscape:locked="false" />
    <sodipodi:guide
       position="89.974377,250.0517"
       orientation="-2.7450331,2.1359395"
       id="guide306"
       inkscape:locked="false" />
    <sodipodi:guide
       position="90.539511,250.77799"
       orientation="-0.44980157,83.742096"
       id="guide308"
       inkscape:locked="false" />
    <sodipodi:guide
       position="99.585004,280.28177"
       orientation="0,-119.65101"
       id="guide310"
       inkscape:locked="false" />
    <sodipodi:guide
       position="67.927341,280.28177"
       orientation="4.9200756,-4.8259011"
       id="guide312"
       inkscape:locked="false" />
    <sodipodi:guide
       position="93.115385,284.49948"
       orientation="-1,0"
       id="guide351"
       inkscape:label=""
       inkscape:locked="false"
       inkscape:color="rgb(0,134,229)" />
  </sodipodi:namedview>
  <defs
     id="defs2" />
  <path
     style="fill:#2fa125;fill-opacity:0.564706;stroke-width:1.67255"
     d="m 111.12737,276.17419 c -11.1113,6.72474 -22.078407,17.29171 -28.617786,27.57205 -5.492437,8.63553 -13.482367,22.6581 -13.482367,23.66439 0,0.15412 -1.815132,3.69198 -4.033863,7.86045 -2.218671,4.17022 -5.040255,9.70571 -6.270349,12.30168 -7.293019,15.38097 -11.876279,18.90907 -37.808623,29.09971 -5.087289,1.99879 -8.229762,3.7179 -8.229762,4.50331 0,1.18061 5.296345,7.29952 8.78241,10.14584 36.933461,30.15945 83.01885,11.94602 95.17225,-37.61441 1.36945,-5.58549 2.57039,-69.74678 1.45539,-77.77298 -0.49248,-3.5453 -0.7261,-3.53672 -6.9673,0.23998"
     id="path53" />
  <path
     style="fill:#2fa125;fill-opacity:0.564706;stroke-width:1.67255"
     d="m 30.093856,232.23718 c -9.05306,3.84744 -17.884098,7.66375 -19.624696,8.48187 -1.7422171,0.81645 -4.3774291,1.93497 -5.8571003,2.48388 l -2.6903179,0.99933 v 59.68555 c 0,56.52858 0.058192,59.66832 1.1085387,59.33689 1.5542262,-0.49184 27.1008535,-10.37189 30.4815755,-11.789 2.552551,-1.07021 3.07279,-1.72779 6.237959,-7.90882 1.901046,-3.7076 5.019213,-9.57451 6.931607,-13.03692 l 3.476338,-6.29503 0.251194,-10.56173 c 0.139359,-5.80823 0.401943,-23.45551 0.583441,-39.21616 0.183142,-15.7607 0.505648,-32.87978 0.716337,-38.04241 0.568862,-13.94322 1.18147,-13.82586 -21.614885,-4.13745"
     id="path51" />
  <path
     style="fill:#dddddd;fill-opacity:0.87451;stroke-width:1.67255"
     d="m 216.85018,183.53975 c -5.13909,2.9102 -10.25879,3.3745 -39.30771,3.56266 -36.8735,0.23999 -44.40642,1.05635 -59.76711,6.4727 -36.3662,12.82462 -51.258566,40.26732 -51.27798,94.49509 -0.0017,8.14185 0.348531,8.60616 3.056552,4.04588 8.241137,-13.88102 26.862625,-29.32065 43.263788,-35.86761 14.51473,-5.7961 22.43822,-6.71609 64.30664,-7.47044 39.24126,-0.7059 40.94788,-0.91302 56.13517,-6.81964 12.92966,-5.02802 23.39435,-12.39653 34.15077,-24.04404 l 4.34661,-4.70698 -2.76321,-1.6864 c -10.58622,-6.46407 -20.37671,-12.4034 -23.33764,-14.15543 -1.91565,-1.13406 -4.47957,-2.72375 -5.69833,-3.53327 -4.23482,-2.81001 -19.55015,-11.78723 -20.06064,-11.7562 -0.28377,0.0145 -1.65313,0.67492 -3.04691,1.46368"
     id="path49"
     inkscape:highlight-color="#a1a1a1" />
  <path
     style="fill:#dddddd;fill-opacity:0.87451;stroke-width:1.67255"
     d="m 261.13851,99.404507 c -11.15665,3.041333 -22.7607,6.106823 -25.78812,6.814503 l -5.50378,1.28591 2.102,2.37853 c 5.4698,6.18792 11.77904,16.8809 11.79853,19.99126 0.004,0.78886 0.45693,2.76002 1.00482,4.38251 3.05492,9.0532 -0.22362,26.56069 -6.52647,34.8458 -1.21389,1.59663 -2.10364,2.99125 -1.97883,3.10002 0.12631,0.10912 2.79405,1.65869 5.9268,3.44689 3.13435,1.78644 7.46154,4.39803 9.61868,5.80307 2.15542,1.4033 5.43246,3.36407 7.28003,4.3531 3.40016,1.82097 13.41429,7.93819 17.74954,10.84146 3.65467,2.44752 4.08251,2.17997 6.91701,-4.32044 11.16644,-25.6009 12.93141,-52.8382 5.32073,-82.0881 -0.57887,-2.2249 -1.32248,-4.33414 -1.65308,-4.68627 -0.3308,-0.35214 -0.60151,-1.03218 -0.60151,-1.51203 0,-1.63113 -3.96417,-10.321864 -4.67399,-10.244195 -0.389,0.043 -9.83426,2.566651 -20.99256,5.607982"
     id="path47" />
  <path
     style="fill:#dddddd;fill-opacity:0.87451;stroke-width:1.61178"
     d="m 135.97272,37.758409 v 62.445031 l 37.59841,-0.222121 c 23.39927,-0.138042 42.65293,-0.378784 42.78685,-0.530717 0.13428,-0.15375 -0.71625,-0.804041 -1.88725,-1.444422 -3.55491,-1.943523 -2.95716,-2.198537 19.62179,-8.374372 10.98394,-3.005075 37.38305,-11.235658 38.73154,-12.076251 3.0072,-1.876229 -17.34798,-21.70144 -29.61871,-28.849069 C 224.5049,37.811589 224.03128,37.758417 148.39571,37.758417 Z"
     id="path566" />
  <path
     style="fill:#2fa125;fill-opacity:0.564706;stroke-width:1.67255"
     d="m 73.359048,37.758409 -2.63911,2.756441 -2.642318,2.75644 -0.167747,71.47267 -0.170941,71.47157 1.639027,2.12944 c 0.902693,1.1703 2.268879,3.18955 3.038721,4.48758 2.361263,3.97852 4.589661,3.66258 12.15166,-1.72787 8.57012,-6.1068 16.952,-10.47543 25.79598,-13.44076 l 7.41088,-2.48507 v -35.9355 c 0,-15.99565 4.2e-4,-24.54523 4.2e-4,-29.69602 h -4.2e-4 V 37.758409 Z"
     id="path0" />
</svg>
